<svg width="44" height="44" viewBox="-22 -22 44 44" xmlns="http://www.w3.org/2000/svg">
   <path stroke-linecap="round" stroke-linejoin="round" d="M17.928,10.226 L-1.203,9.841 L-0.543,21.737 Z" fill="rgb(10 40 76)" />
   <path stroke-linecap="round" stroke-linejoin="round" d="M-19.008,9.29 L-0.543,21.737 L-1.203,9.841 Z" fill="rgb(10 40 76)" />
   <path stroke-linecap="round" stroke-linejoin="round" d="M-0.543,21.737 L11.948,9.913 L17.928,10.226 Z" fill="rgb(26 100 129)" />
   <path stroke-linecap="round" stroke-linejoin="round" d="M-10.88,9.335 L-0.543,21.737 L-19.008,9.29 Z" fill="rgb(10 40 76)" />
   <path stroke-linecap="round" stroke-linejoin="round" d="M19.008,-9.29 L17.928,10.226 L11.948,9.913 Z" fill="rgb(121 196 163)" />
   <path stroke-linecap="round" stroke-linejoin="round" d="M-10.88,9.335 L-19.008,9.29 L-17.928,-10.226 Z" fill="rgb(26 100 129)" />
   <path stroke-linecap="round" stroke-linejoin="round" d="M0.543,-21.737 L19.008,-9.29 L1.203,-9.841 Z" fill="rgb(201 231 191)" />
   <path stroke-linecap="round" stroke-linejoin="round" d="M1.203,-9.841 L-17.928,-10.226 L0.543,-21.737 Z" fill="rgb(121 196 163)" />
   <path stroke-linecap="round" stroke-linejoin="round" d="M-10.88,9.335 L11.948,9.913 L-0.543,21.737 Z" fill="rgb(26 100 129)" />
   <path stroke-linecap="round" stroke-linejoin="round" d="M11.948,9.913 L1.203,-9.841 L19.008,-9.29 Z" fill="rgb(121 196 163)" />
   <path stroke-linecap="round" stroke-linejoin="round" d="M-10.88,9.335 L-17.928,-10.226 L1.203,-9.841 Z" fill="rgb(42 161 152)" />
   <path stroke-linecap="round" stroke-linejoin="round" d="M-10.88,9.335 L1.203,-9.841 L11.948,9.913 Z" fill="rgb(42 161 152)" />
</svg>
